<svg xmlns="http://www.w3.org/2000/svg" width="200" height="200" class="icon" p-id="10416" t="1652529720859" version="1.1" viewBox="0 0 1024 1024"><defs><style type="text/css">@font-face{font-family:element-icons;src:url(chrome-extension://moombeodfomdpjnpocobemoiaemednkg/fonts/element-icons.woff) format(&quot;woff&quot;),url(&quot;chrome-extension://moombeodfomdpjnpocobemoiaemednkg/fonts/element-icons.ttf &quot;) format(&quot;truetype&quot;)}</style></defs><path fill="#202425" d="M0 0h1024v1024H0V0z" opacity=".01" p-id="10417"/><path fill="#1A6" d="M955.733333 512c0 245.077333-198.656 443.733333-443.733333 443.733333S68.266667 757.077333 68.266667 512 266.922667 68.266667 512 68.266667s443.733333 198.656 443.733333 443.733333z" p-id="10418"/><path fill="#1A6" d="M512 102.4C285.7984 102.4 102.4 285.7984 102.4 512s183.3984 409.6 409.6 409.6 409.6-183.3984 409.6-409.6S738.2016 102.4 512 102.4zM34.133333 512C34.133333 248.081067 248.081067 34.133333 512 34.133333s477.866667 213.947733 477.866667 477.866667-213.947733 477.866667-477.866667 477.866667S34.133333 775.918933 34.133333 512z" p-id="10419"/><path fill="#FFF" d="M512 204.8a68.266667 68.266667 0 0 1 68.266667 68.266667v17.066666a68.266667 68.266667 0 1 1-136.533334 0V273.066667a68.266667 68.266667 0 0 1 68.266667-68.266667z m0 204.8a68.266667 68.266667 0 0 1 68.266667 68.266667v273.066666a68.266667 68.266667 0 1 1-136.533334 0v-273.066666a68.266667 68.266667 0 0 1 68.266667-68.266667z" p-id="10420"/></svg>