<svg xmlns="http://www.w3.org/2000/svg" width="200" height="200" class="icon" p-id="46253" t="1657789493837" version="1.1" viewBox="0 0 1024 1024"><defs><style type="text/css">@font-face{font-family:element-icons;src:url(chrome-extension://moombeodfomdpjnpocobemoiaemednkg/fonts/element-icons.woff) format(&quot;woff&quot;),url(&quot;chrome-extension://moombeodfomdpjnpocobemoiaemednkg/fonts/element-icons.ttf &quot;) format(&quot;truetype&quot;)}</style></defs><path fill="#A1AFFF" d="M500.3 532c-43.3 0-78.6-35.2-78.6-78.6H370c0 3.6 0.1 7.2 0.4 10.7 5.5 66.9 61.6 119.7 129.9 119.7 66.6 0 121.7-50.2 129.4-114.7 0.6-5.1 0.9-10.4 0.9-15.7h-51.8c0.1 43.3-35.2 78.6-78.5 78.6z" p-id="46254"/><path fill="#4A5FE2" d="M847.1 869.3H153.5c-27.8 0-50.4-22.6-50.4-50.4V298c0-27.8 22.6-50.4 50.4-50.4h693.7c27.8 0 50.4 22.6 50.4 50.4v520.9c0 27.8-22.6 50.4-50.5 50.4z m-683.5-60.5h673.5V308.1H163.6v500.7z" p-id="46255"/><path fill="#4A5FE2" d="M144.7 430.7H856v60.5H144.7zM341.6 294.5h-60.5v-102c0-27.2 22.1-49.3 49.3-49.3h339.8c27.2 0 49.3 22.1 49.3 49.3v95.3H659v-84.1H341.6v90.8z" p-id="46256"/></svg>